<?xml version="1.0" encoding="UTF-8"?>
<!DOCTYPE svg PUBLIC "-//W3C//DTD SVG 1.1//EN" "http://www.w3.org/Graphics/SVG/1.1/DTD/svg11.dtd">
<svg xmlns="http://www.w3.org/2000/svg" version="1.1" width="160px" height="80px" style="shape-rendering:geometricPrecision; text-rendering:geometricPrecision; image-rendering:optimizeQuality; fill-rule:evenodd; clip-rule:evenodd" xmlns:xlink="http://www.w3.org/1999/xlink">
<g><path style="opacity:0.951" fill="#ffffff" d="M 14.5,-0.5 C 15.8333,-0.5 17.1667,-0.5 18.5,-0.5C 20.1667,0.833333 21.8333,0.833333 23.5,-0.5C 27.5,-0.5 31.5,-0.5 35.5,-0.5C 44.7164,3.78383 45.8831,9.78383 39,17.5C 35.5,20.3333 32,23.1667 28.5,26C 33.7163,26.5539 38.7163,27.8873 43.5,30C 46.9528,33.0164 47.7861,36.5164 46,40.5C 36.4873,48.507 25.654,53.6736 13.5,56C 10.7854,55.1253 9.45206,53.2919 9.5,50.5C 19.6643,48.5812 28.9976,44.7478 37.5,39C 43.5548,34.0057 42.5548,31.5057 34.5,31.5C 26.3959,32.4238 18.7292,34.7572 11.5,38.5C 8.6867,45.8599 7.6867,53.3599 8.5,61C 5.99091,62.4652 3.65758,61.9652 1.5,59.5C 0.371667,53.653 1.03833,47.653 3.5,41.5C 5.4789,31.0215 8.4789,20.5215 12.5,10C 9.26537,11.0305 6.0987,12.5305 3,14.5C 1.86151,14.0109 0.69484,13.6775 -0.5,13.5C -0.5,12.1667 -0.5,10.8333 -0.5,9.5C 3.99417,7.08796 8.66083,4.92129 13.5,3C 14.3366,1.98873 14.67,0.822066 14.5,-0.5 Z M 27.5,4.5 C 30.8333,4.5 34.1667,4.5 37.5,4.5C 37.1594,7.51583 35.9927,10.1825 34,12.5C 27.7746,18.8203 20.9413,23.987 13.5,28C 15.7292,21.1459 18.0626,14.3126 20.5,7.5C 22.7639,6.13077 25.0972,5.13077 27.5,4.5 Z"/></g>
<g><path style="opacity:0.971" fill="#ffffff" d="M 159.5,47.5 C 159.5,49.8333 159.5,52.1667 159.5,54.5C 154.02,56.8238 150.187,55.1572 148,49.5C 146.059,45.9523 144.393,42.2857 143,38.5C 142.501,43.8229 142.334,49.1563 142.5,54.5C 140.533,54.7394 138.699,54.4061 137,53.5C 136.6,47.7978 136.434,42.2978 136.5,37C 137.715,34.9045 138.549,35.0712 139,37.5C 139.465,36.0692 140.299,34.9025 141.5,34C 135.299,27.2679 136.633,24.7679 145.5,26.5C 146.831,31.6565 148.664,36.6565 151,41.5C 152.479,39.6178 153.312,37.4511 153.5,35C 152.837,29.9905 152.004,25.8238 151,22.5C 151.414,22.0426 151.914,21.7093 152.5,21.5C 154.115,22.154 155.782,22.654 157.5,23C 156.342,31.3694 157.008,39.5361 159.5,47.5 Z"/></g>
<g><path style="opacity:0.957" fill="#ffffff" d="M 109.5,26.5 C 111.166,25.3336 112.833,25.3336 114.5,26.5C 110.833,30.5 107.167,34.5 103.5,38.5C 107.076,44.4131 111.409,49.7465 116.5,54.5C 114.235,55.6474 111.902,55.8141 109.5,55C 107,52.5 104.5,50 102,47.5C 101.503,50.146 101.336,52.8127 101.5,55.5C 99.2075,55.7564 97.0408,55.4231 95,54.5C 94.5002,43.8385 94.3335,33.1719 94.5,22.5C 99.0446,22.7148 100.711,24.8814 99.5,29C 100.104,31.5838 100.937,34.0838 102,36.5C 103.979,32.6997 106.479,29.3664 109.5,26.5 Z"/></g>
<g><path style="opacity:0.96" fill="#ffffff" d="M 126.5,23.5 C 128.792,23.2436 130.959,23.5769 133,24.5C 133.667,34.5 133.667,44.5 133,54.5C 130.959,55.4231 128.792,55.7564 126.5,55.5C 126.334,49.1579 126.5,42.8246 127,36.5C 127.311,41.0587 128.145,41.392 129.5,37.5C 129.204,34.9738 129.037,32.3071 129,29.5C 128.085,30.3279 127.419,31.3279 127,32.5C 126.502,29.5184 126.335,26.5184 126.5,23.5 Z"/></g>
<g><path style="opacity:0.955" fill="#ffffff" d="M 65.5,48.5 C 66.0081,45.8239 66.1747,43.1572 66,40.5C 64.1648,43.9375 63.6648,47.4375 64.5,51C 62.7675,54.451 59.9342,55.951 56,55.5C 53.4136,55.4982 51.4136,54.4982 50,52.5C 48.4181,44.7938 48.7515,37.1271 51,29.5C 54.0735,28.7614 56.2402,26.9281 57.5,24C 61.3228,23.3835 64.8228,24.2168 68,26.5C 69.3929,31.0947 69.7262,35.7613 69,40.5C 68.6779,43.6663 67.5113,46.333 65.5,48.5 Z M 61.5,29.5 C 62.1558,30.6216 62.4892,31.9549 62.5,33.5C 62.0467,37.173 61.5467,40.8396 61,44.5C 60.5883,46.9969 59.4216,48.9969 57.5,50.5C 53.6224,48.5992 53.6224,46.7659 57.5,45C 56.572,44.6121 55.9054,43.9454 55.5,43C 57.632,38.5685 59.632,34.0685 61.5,29.5 Z"/></g>
<g><path style="opacity:0.952" fill="#ffffff" d="M 79.5,23.5 C 88.1414,22.6345 92.1414,26.4678 91.5,35C 91.3399,39.8155 90.1732,44.3155 88,48.5C 87.8333,47.8333 87.6667,47.1667 87.5,46.5C 88.3509,44.1465 88.8509,41.8132 89,39.5C 86.3798,44.0049 85.0465,48.6716 85,53.5C 75.4325,58.047 70.5991,55.047 70.5,44.5C 71.0888,39.4551 71.9221,34.4551 73,29.5C 76.2485,28.6676 78.4152,26.6676 79.5,23.5 Z M 83.5,29.5 C 84.1558,30.6216 84.4892,31.9549 84.5,33.5C 84.0467,37.173 83.5467,40.8396 83,44.5C 82.5883,46.9969 81.4216,48.9969 79.5,50.5C 75.6224,48.5992 75.6224,46.7659 79.5,45C 77.7174,43.9335 77.2174,42.4335 78,40.5C 80.3103,37.0675 82.1436,33.4008 83.5,29.5 Z"/></g>
<g><path style="opacity:0.063" fill="#ffffff" d="M 109.5,26.5 C 108.833,25.1667 108.833,25.1667 109.5,26.5 Z"/></g>
<g><path style="opacity:0.063" fill="#ffffff" d="M 65.5,48.5 C 64.8333,49.1667 64.8333,49.1667 65.5,48.5 Z"/></g>
<g><path style="opacity:0.92" fill="#ffffff" d="M 21.5,79.5 C 20.1667,79.5 18.8333,79.5 17.5,79.5C 17.0489,73.0185 16.0489,73.0185 14.5,79.5C 13.5,79.5 12.5,79.5 11.5,79.5C 11.7673,73.6895 12.7673,68.0228 14.5,62.5C 17.1293,60.9496 18.9626,61.6162 20,64.5C 21.0498,69.4482 21.5498,74.4482 21.5,79.5 Z M 16.5,68.5 C 18.8586,69.3887 19.0253,70.722 17,72.5C 16.51,71.2068 16.3433,69.8734 16.5,68.5 Z"/></g>
<g><path style="opacity:0.913" fill="#ffffff" d="M 41.5,79.5 C 40.5,79.5 39.5,79.5 38.5,79.5C 37.8333,78.1667 37.1667,78.1667 36.5,79.5C 35.5,79.5 34.5,79.5 33.5,79.5C 32.8516,74.1717 32.6849,68.8383 33,63.5C 35.1917,62.6005 37.3584,61.6005 39.5,60.5C 41.9647,61.1322 43.6314,62.6322 44.5,65C 43.7602,68.646 42.0935,71.8127 39.5,74.5C 40.3128,75.8139 41.3128,76.9805 42.5,78C 41.944,78.3826 41.6107,78.8826 41.5,79.5 Z M 39.5,64.5 C 40.0431,64.56 40.3764,64.8933 40.5,65.5C 39.6667,67.1667 38.8333,68.8333 38,70.5C 37.5906,68.3049 38.0906,66.3049 39.5,64.5 Z"/></g>
<g><path style="opacity:0.944" fill="#ffffff" d="M 149.5,79.5 C 148.167,79.5 146.833,79.5 145.5,79.5C 144.052,73.031 143.052,73.031 142.5,79.5C 141.5,79.5 140.5,79.5 139.5,79.5C 137.983,77.0642 138.316,74.8976 140.5,73C 139.941,72.2753 139.608,71.4419 139.5,70.5C 140.328,67.5212 140.995,64.5212 141.5,61.5C 143.766,61.1412 145.599,61.8078 147,63.5C 148.253,68.773 149.087,74.1063 149.5,79.5 Z M 144.5,68.5 C 145.465,69.7211 145.298,71.0544 144,72.5C 143.421,71.0715 143.588,69.7382 144.5,68.5 Z"/></g>
<g><path style="opacity:0.932" fill="#ffffff" d="M 67.5,79.5 C 66.5,79.5 65.5,79.5 64.5,79.5C 64.6621,77.4727 64.4955,75.4727 64,73.5C 61.9783,74.9909 60.3117,74.6576 59,72.5C 58.5045,74.4727 58.3379,76.4727 58.5,78.5C 57.1667,78.5 55.8333,78.5 54.5,78.5C 54.1224,72.69 54.789,67.0234 56.5,61.5C 59.9821,62.0347 61.6488,64.0347 61.5,67.5C 62.552,67.6495 63.552,67.4828 64.5,67C 64.0338,65.7012 64.0338,64.2012 64.5,62.5C 65.8333,62.5 67.1667,62.5 68.5,62.5C 68.7857,68.2586 68.4524,73.9252 67.5,79.5 Z"/></g>
<g><path style="opacity:0.983" fill="#ffffff" d="M 127.5,79.5 C 126.5,79.5 125.5,79.5 124.5,79.5C 124.489,77.4534 124.156,75.4534 123.5,73.5C 123.939,71.8957 124.606,70.3957 125.5,69C 124.833,67.6667 124.167,66.3333 123.5,65C 124.032,62.9803 125.365,62.147 127.5,62.5C 127.731,68.3338 127.731,74.0005 127.5,79.5 Z"/></g>
<g><path style="opacity:0.858" fill="#ffffff" d="M 112.5,79.5 C 111.5,79.5 110.5,79.5 109.5,79.5C 107.512,77.5351 106.012,75.2018 105,72.5C 104.505,74.4727 104.338,76.4727 104.5,78.5C 103.178,78.67 102.011,78.3366 101,77.5C 100.398,74.7795 100.565,72.1128 101.5,69.5C 102.291,67.6907 102.291,65.6907 101.5,63.5C 102.978,63.238 104.311,63.5713 105.5,64.5C 106.502,66.5101 107.502,68.5101 108.5,70.5C 109.509,67.5274 109.509,64.5274 108.5,61.5C 109.5,61.5 110.5,61.5 111.5,61.5C 111.47,66.7568 112.136,71.9235 113.5,77C 113.257,77.9021 112.923,78.7354 112.5,79.5 Z"/></g>
<g><path style="opacity:0.951" fill="#ffffff" d="M 87.5,79.5 C 85.5,79.5 83.5,79.5 81.5,79.5C 80.2618,74.5911 79.7618,69.5911 80,64.5C 80.4083,62.5904 81.5749,61.5904 83.5,61.5C 89.7466,62.3716 89.9133,63.3716 84,64.5C 84.0187,66.1075 84.1854,67.7741 84.5,69.5C 89.1366,69.6077 89.47,70.6077 85.5,72.5C 84.5713,73.6888 84.238,75.0222 84.5,76.5C 86.2259,76.1854 87.8925,76.0187 89.5,76C 89.8333,76.3333 90.1667,76.6667 90.5,77C 89.4293,77.8518 88.4293,78.6851 87.5,79.5 Z"/></g>
<g><path style="opacity:0.063" fill="#ffffff" d="M 101.5,69.5 C 100.833,68.1667 100.833,68.1667 101.5,69.5 Z"/></g>
</svg>